<svg id="visual" viewBox="0 0 1920 1080" width="1920" height="1080" xmlns="http://www.w3.org/2000/svg" xmlns:xlink="http://www.w3.org/1999/xlink" version="1.1"><path d="M0 386L45.7 393C91.3 400 182.7 414 274.2 446.8C365.7 479.7 457.3 531.3 548.8 558.3C640.3 585.3 731.7 587.7 823 562.8C914.3 538 1005.7 486 1097 470.3C1188.3 454.7 1279.7 475.3 1371.2 493.3C1462.7 511.3 1554.3 526.7 1645.8 536C1737.3 545.3 1828.7 548.7 1874.3 550.3L1920 552L1920 0L1874.3 0C1828.7 0 1737.3 0 1645.8 0C1554.3 0 1462.7 0 1371.2 0C1279.7 0 1188.3 0 1097 0C1005.7 0 914.3 0 823 0C731.7 0 640.3 0 548.8 0C457.3 0 365.7 0 274.2 0C182.7 0 91.3 0 45.7 0L0 0Z" fill="#715df2"></path><path d="M0 376L45.7 371.3C91.3 366.7 182.7 357.3 274.2 351.8C365.7 346.3 457.3 344.7 548.8 359.7C640.3 374.7 731.7 406.3 823 424.3C914.3 442.3 1005.7 446.7 1097 458.5C1188.3 470.3 1279.7 489.7 1371.2 499.3C1462.7 509 1554.3 509 1645.8 492.2C1737.3 475.3 1828.7 441.7 1874.3 424.8L1920 408L1920 0L1874.3 0C1828.7 0 1737.3 0 1645.8 0C1554.3 0 1462.7 0 1371.2 0C1279.7 0 1188.3 0 1097 0C1005.7 0 914.3 0 823 0C731.7 0 640.3 0 548.8 0C457.3 0 365.7 0 274.2 0C182.7 0 91.3 0 45.7 0L0 0Z" fill="#5576fb"></path><path d="M0 358L45.7 362.3C91.3 366.7 182.7 375.3 274.2 370.3C365.7 365.3 457.3 346.7 548.8 336.3C640.3 326 731.7 324 823 320.3C914.3 316.7 1005.7 311.3 1097 298.8C1188.3 286.3 1279.7 266.7 1371.2 279.3C1462.7 292 1554.3 337 1645.8 340.2C1737.3 343.3 1828.7 304.7 1874.3 285.3L1920 266L1920 0L1874.3 0C1828.7 0 1737.3 0 1645.8 0C1554.3 0 1462.7 0 1371.2 0C1279.7 0 1188.3 0 1097 0C1005.7 0 914.3 0 823 0C731.7 0 640.3 0 548.8 0C457.3 0 365.7 0 274.2 0C182.7 0 91.3 0 45.7 0L0 0Z" fill="#408bfe"></path><path d="M0 143L45.7 151.3C91.3 159.7 182.7 176.3 274.2 197C365.7 217.7 457.3 242.3 548.8 254.8C640.3 267.3 731.7 267.7 823 265.3C914.3 263 1005.7 258 1097 249.2C1188.3 240.3 1279.7 227.7 1371.2 219.8C1462.7 212 1554.3 209 1645.8 218C1737.3 227 1828.7 248 1874.3 258.5L1920 269L1920 0L1874.3 0C1828.7 0 1737.3 0 1645.8 0C1554.3 0 1462.7 0 1371.2 0C1279.7 0 1188.3 0 1097 0C1005.7 0 914.3 0 823 0C731.7 0 640.3 0 548.8 0C457.3 0 365.7 0 274.2 0C182.7 0 91.3 0 45.7 0L0 0Z" fill="#3d9dfc"></path><path d="M0 97L45.7 95.8C91.3 94.7 182.7 92.3 274.2 106C365.7 119.7 457.3 149.3 548.8 156.5C640.3 163.7 731.7 148.3 823 145.8C914.3 143.3 1005.7 153.7 1097 156.7C1188.3 159.7 1279.7 155.3 1371.2 146.3C1462.7 137.3 1554.3 123.7 1645.8 124C1737.3 124.3 1828.7 138.7 1874.3 145.8L1920 153L1920 0L1874.3 0C1828.7 0 1737.3 0 1645.8 0C1554.3 0 1462.7 0 1371.2 0C1279.7 0 1188.3 0 1097 0C1005.7 0 914.3 0 823 0C731.7 0 640.3 0 548.8 0C457.3 0 365.7 0 274.2 0C182.7 0 91.3 0 45.7 0L0 0Z" fill="#4facf7"></path></svg>